<svg width="288" height="42" viewBox="0 0 288 42" fill="none" xmlns="http://www.w3.org/2000/svg">
<circle cx="5" cy="6" r="3.5" stroke="white" stroke-width="3"/>
<circle cx="32" cy="33" r="3.5" stroke="white" stroke-width="3"/>
<path d="M19 1C21.7614 1 24 3.23858 24 6C24 8.76142 21.7614 11 19 11C18.1595 11 17.3681 10.7912 16.6729 10.4248L9.60547 17.0508C9.85931 17.6498 10 18.3084 10 19C10 21.7614 7.76142 24 5 24C2.23858 24 0 21.7614 0 19C0 16.2386 2.23858 14 5 14C5.97626 14 6.8865 14.2809 7.65625 14.7646L14.5576 8.29395C14.202 7.60674 14 6.82713 14 6C14 3.23858 16.2386 1 19 1ZM5 17C3.89543 17 3 17.8954 3 19C3 20.1046 3.89543 21 5 21C6.10457 21 7 20.1046 7 19C7 17.8954 6.10457 17 5 17ZM19 4C17.8954 4 17 4.89543 17 6C17 7.10457 17.8954 8 19 8C20.1046 8 21 7.10457 21 6C21 4.89543 20.1046 4 19 4Z" fill="white"/>
<path d="M32 14C34.7614 14 37 16.2386 37 19C37 21.7614 34.7614 24 32 24C31.1654 24 30.3792 23.7942 29.6875 23.4326L23.0508 30.0693C23.6476 30.8929 24 31.9052 24 33C24 35.7614 21.7614 38 19 38C16.2386 38 14 35.7614 14 33C14 30.2386 16.2386 28 19 28C19.5639 28 20.1056 28.0945 20.6113 28.2666L27.5664 21.3115C27.2052 20.6201 27 19.8341 27 19C27 16.2386 29.2386 14 32 14ZM19 31C17.8954 31 17 31.8954 17 33C17 34.1046 17.8954 35 19 35C20.1046 35 21 34.1046 21 33C21 31.8954 20.1046 31 19 31ZM32 17C30.8954 17 30 17.8954 30 19C30 20.1046 30.8954 21 32 21C33.1046 21 34 20.1046 34 19C34 17.8954 33.1046 17 32 17Z" fill="white"/>
<path d="M32 0C34.7614 0 37 2.23858 37 5C37 7.76142 34.7614 10 32 10C31.424 10 30.8714 9.9009 30.3564 9.72168L23.2568 16.377C23.7278 17.1396 24 18.0379 24 19C24 21.7614 21.7614 24 19 24C18.1595 24 17.3681 23.7912 16.6729 23.4248L9.25684 30.377C9.72775 31.1396 10 32.0379 10 33C10 35.7614 7.76142 38 5 38C2.23858 38 0 35.7614 0 33C0 30.2386 2.23858 28 5 28C5.70087 28 6.36818 28.1439 6.97363 28.4043L14.5576 21.2939C14.202 20.6067 14 19.8271 14 19C14 16.2386 16.2386 14 19 14C19.7009 14 20.3682 14.1439 20.9736 14.4043L27.9209 7.89062C27.3414 7.07438 27 6.07724 27 5C27 2.23858 29.2386 0 32 0ZM5 31C3.89543 31 3 31.8954 3 33C3 34.1046 3.89543 35 5 35C6.10457 35 7 34.1046 7 33C7 31.8954 6.10457 31 5 31ZM19 17C17.8954 17 17 17.8954 17 19C17 20.1046 17.8954 21 19 21C20.1046 21 21 20.1046 21 19C21 17.8954 20.1046 17 19 17ZM32 3C30.8954 3 30 3.89543 30 5C30 6.10457 30.8954 7 32 7C33.1046 7 34 6.10457 34 5C34 3.89543 33.1046 3 32 3Z" fill="white"/>
<path d="M47.9547 10V4.1H45.6347V3H51.5747V4.1H49.2547V10H47.9547ZM57.4704 3H58.7704V10H57.4704V3ZM53.8504 10H52.5504V3H53.8504V10ZM57.5704 7H53.7404V5.89H57.5704V7ZM61.8461 5.91H65.3261V6.98H61.8461V5.91ZM61.9461 8.91H65.8961V10H60.6461V3H65.7561V4.09H61.9461V8.91Z" fill="white"/>
<path d="M46.642 37V16H57.382C60.142 16 62.202 16.51 63.562 17.53C64.922 18.53 65.602 19.85 65.602 21.49C65.602 22.57 65.312 23.52 64.732 24.34C64.172 25.14 63.372 25.78 62.332 26.26C61.312 26.72 60.092 26.95 58.672 26.95L59.272 25.51C60.752 25.51 62.042 25.74 63.142 26.2C64.242 26.64 65.092 27.29 65.692 28.15C66.312 28.99 66.622 30.02 66.622 31.24C66.622 33.06 65.882 34.48 64.402 35.5C62.942 36.5 60.802 37 57.982 37H46.642ZM52.522 32.71H57.502C58.522 32.71 59.292 32.54 59.812 32.2C60.352 31.84 60.622 31.3 60.622 30.58C60.622 29.86 60.352 29.33 59.812 28.99C59.292 28.63 58.522 28.45 57.502 28.45H52.102V24.34H56.602C57.602 24.34 58.352 24.17 58.852 23.83C59.352 23.49 59.602 22.98 59.602 22.3C59.602 21.62 59.352 21.12 58.852 20.8C58.352 20.46 57.602 20.29 56.602 20.29H52.522V32.71ZM79.3886 37.42C76.2886 37.42 73.8686 36.57 72.1286 34.87C70.3886 33.17 69.5186 30.76 69.5186 27.64V16H75.4586V27.46C75.4586 29.26 75.8086 30.55 76.5086 31.33C77.2286 32.11 78.2086 32.5 79.4486 32.5C80.6886 32.5 81.6586 32.11 82.3586 31.33C83.0586 30.55 83.4086 29.26 83.4086 27.46V16H89.2586V27.64C89.2586 30.76 88.3886 33.17 86.6486 34.87C84.9086 36.57 82.4886 37.42 79.3886 37.42ZM100.663 37.42C98.9426 37.42 97.2826 37.21 95.6826 36.79C94.1026 36.35 92.8126 35.79 91.8126 35.11L93.7626 30.73C94.7026 31.33 95.7826 31.83 97.0026 32.23C98.2426 32.61 99.4726 32.8 100.693 32.8C101.513 32.8 102.173 32.73 102.673 32.59C103.173 32.43 103.533 32.23 103.753 31.99C103.993 31.73 104.113 31.43 104.113 31.09C104.113 30.61 103.893 30.23 103.453 29.95C103.013 29.67 102.443 29.44 101.743 29.26C101.043 29.08 100.263 28.9 99.4026 28.72C98.5626 28.54 97.7126 28.31 96.8526 28.03C96.0126 27.75 95.2426 27.39 94.5426 26.95C93.8426 26.49 93.2726 25.9 92.8326 25.18C92.3926 24.44 92.1726 23.51 92.1726 22.39C92.1726 21.13 92.5126 19.99 93.1926 18.97C93.8926 17.95 94.9326 17.13 96.3126 16.51C97.6926 15.89 99.4126 15.58 101.473 15.58C102.853 15.58 104.203 15.74 105.523 16.06C106.863 16.36 108.053 16.81 109.093 17.41L107.263 21.82C106.263 21.28 105.273 20.88 104.293 20.62C103.313 20.34 102.363 20.2 101.443 20.2C100.623 20.2 99.9626 20.29 99.4626 20.47C98.9626 20.63 98.6026 20.85 98.3826 21.13C98.1626 21.41 98.0526 21.73 98.0526 22.09C98.0526 22.55 98.2626 22.92 98.6826 23.2C99.1226 23.46 99.6926 23.68 100.393 23.86C101.113 24.02 101.893 24.19 102.733 24.37C103.593 24.55 104.443 24.78 105.283 25.06C106.143 25.32 106.923 25.68 107.623 26.14C108.323 26.58 108.883 27.17 109.303 27.91C109.743 28.63 109.963 29.54 109.963 30.64C109.963 31.86 109.613 32.99 108.913 34.03C108.233 35.05 107.203 35.87 105.823 36.49C104.463 37.11 102.743 37.42 100.663 37.42ZM112.706 37V16H118.646V37H112.706ZM122.872 37V16H127.762L139.342 29.98H137.032V16H142.852V37H137.962L126.382 23.02H128.692V37H122.872ZM152.502 24.13H162.252V28.57H152.502V24.13ZM152.922 32.41H163.902V37H147.042V16H163.512V20.59H152.922V32.41ZM174.579 37.42C172.859 37.42 171.199 37.21 169.599 36.79C168.019 36.35 166.729 35.79 165.729 35.11L167.679 30.73C168.619 31.33 169.699 31.83 170.919 32.23C172.159 32.61 173.389 32.8 174.609 32.8C175.429 32.8 176.089 32.73 176.589 32.59C177.089 32.43 177.449 32.23 177.669 31.99C177.909 31.73 178.029 31.43 178.029 31.09C178.029 30.61 177.809 30.23 177.369 29.95C176.929 29.67 176.359 29.44 175.659 29.26C174.959 29.08 174.179 28.9 173.319 28.72C172.479 28.54 171.629 28.31 170.769 28.03C169.929 27.75 169.159 27.39 168.459 26.95C167.759 26.49 167.189 25.9 166.749 25.18C166.309 24.44 166.089 23.51 166.089 22.39C166.089 21.13 166.429 19.99 167.109 18.97C167.809 17.95 168.849 17.13 170.229 16.51C171.609 15.89 173.329 15.58 175.389 15.58C176.769 15.58 178.119 15.74 179.439 16.06C180.779 16.36 181.969 16.81 183.009 17.41L181.179 21.82C180.179 21.28 179.189 20.88 178.209 20.62C177.229 20.34 176.279 20.2 175.359 20.2C174.539 20.2 173.879 20.29 173.379 20.47C172.879 20.63 172.519 20.85 172.299 21.13C172.079 21.41 171.969 21.73 171.969 22.09C171.969 22.55 172.179 22.92 172.599 23.2C173.039 23.46 173.609 23.68 174.309 23.86C175.029 24.02 175.809 24.19 176.649 24.37C177.509 24.55 178.359 24.78 179.199 25.06C180.059 25.32 180.839 25.68 181.539 26.14C182.239 26.58 182.799 27.17 183.219 27.91C183.659 28.63 183.879 29.54 183.879 30.64C183.879 31.86 183.529 32.99 182.829 34.03C182.149 35.05 181.119 35.87 179.739 36.49C178.379 37.11 176.659 37.42 174.579 37.42ZM194.002 37.42C192.282 37.42 190.622 37.21 189.022 36.79C187.442 36.35 186.152 35.79 185.152 35.11L187.102 30.73C188.042 31.33 189.122 31.83 190.342 32.23C191.582 32.61 192.812 32.8 194.032 32.8C194.852 32.8 195.512 32.73 196.012 32.59C196.512 32.43 196.872 32.23 197.092 31.99C197.332 31.73 197.452 31.43 197.452 31.09C197.452 30.61 197.232 30.23 196.792 29.95C196.352 29.67 195.782 29.44 195.082 29.26C194.382 29.08 193.602 28.9 192.742 28.72C191.902 28.54 191.052 28.31 190.192 28.03C189.352 27.75 188.582 27.39 187.882 26.95C187.182 26.49 186.612 25.9 186.172 25.18C185.732 24.44 185.512 23.51 185.512 22.39C185.512 21.13 185.852 19.99 186.532 18.97C187.232 17.95 188.272 17.13 189.652 16.51C191.032 15.89 192.752 15.58 194.812 15.58C196.192 15.58 197.542 15.74 198.862 16.06C200.202 16.36 201.392 16.81 202.432 17.41L200.602 21.82C199.602 21.28 198.612 20.88 197.632 20.62C196.652 20.34 195.702 20.2 194.782 20.2C193.962 20.2 193.302 20.29 192.802 20.47C192.302 20.63 191.942 20.85 191.722 21.13C191.502 21.41 191.392 21.73 191.392 22.09C191.392 22.55 191.602 22.92 192.022 23.2C192.462 23.46 193.032 23.68 193.732 23.86C194.452 24.02 195.232 24.19 196.072 24.37C196.932 24.55 197.782 24.78 198.622 25.06C199.482 25.32 200.262 25.68 200.962 26.14C201.662 26.58 202.222 27.17 202.642 27.91C203.082 28.63 203.302 29.54 203.302 30.64C203.302 31.86 202.952 32.99 202.252 34.03C201.572 35.05 200.542 35.87 199.162 36.49C197.802 37.11 196.082 37.42 194.002 37.42ZM231.457 16H233.647V37H231.457V16ZM218.317 37H216.097V16H218.317V37ZM231.667 27.31H218.077V25.36H231.667V27.31ZM248.961 37.18C246.281 37.18 244.171 36.41 242.631 34.87C241.091 33.33 240.321 31.05 240.321 28.03V16H242.541V27.94C242.541 30.42 243.101 32.25 244.221 33.43C245.341 34.61 246.921 35.2 248.961 35.2C251.021 35.2 252.611 34.61 253.731 33.43C254.851 32.25 255.411 30.42 255.411 27.94V16H257.571V28.03C257.571 31.05 256.801 33.33 255.261 34.87C253.741 36.41 251.641 37.18 248.961 37.18ZM264.261 37V16H273.321C275.661 16 277.471 16.47 278.751 17.41C280.051 18.35 280.701 19.68 280.701 21.4C280.701 22.54 280.431 23.5 279.891 24.28C279.371 25.06 278.651 25.65 277.731 26.05C276.831 26.45 275.841 26.65 274.761 26.65L275.271 25.93C276.611 25.93 277.761 26.14 278.721 26.56C279.701 26.96 280.461 27.57 281.001 28.39C281.541 29.19 281.811 30.19 281.811 31.39C281.811 33.17 281.151 34.55 279.831 35.53C278.531 36.51 276.561 37 273.921 37H264.261ZM266.481 35.17H273.891C275.731 35.17 277.141 34.86 278.121 34.24C279.101 33.6 279.591 32.59 279.591 31.21C279.591 29.85 279.101 28.86 278.121 28.24C277.141 27.6 275.731 27.28 273.891 27.28H266.241V25.45H273.171C274.851 25.45 276.151 25.13 277.071 24.49C278.011 23.85 278.481 22.9 278.481 21.64C278.481 20.36 278.011 19.41 277.071 18.79C276.151 18.15 274.851 17.83 273.171 17.83H266.481V35.17Z" fill="white"/>
</svg>
