<svg width="35" height="35" viewBox="0 0 35 35" fill="none" xmlns="http://www.w3.org/2000/svg">
<path d="M17.2971 3.11321C21.9187 3.11321 22.466 3.13347 24.2836 3.21451C25.9727 3.2888 26.8849 3.57243 27.493 3.80879C28.2971 4.11944 28.8781 4.49762 29.4795 5.09865C30.0876 5.70644 30.4592 6.28046 30.77 7.08408C31.0065 7.69187 31.2903 8.6103 31.3646 10.2918C31.4457 12.1152 31.4659 12.6622 31.4659 17.2746C31.4659 21.8938 31.4457 22.4408 31.3646 24.2574C31.2903 25.9457 31.0065 26.8574 30.77 27.4652C30.4592 28.2688 30.0808 28.8496 29.4795 29.4506C28.8714 30.0584 28.2971 30.4298 27.493 30.7405C26.8849 30.9768 25.966 31.2605 24.2836 31.3347C22.4593 31.4158 21.912 31.436 17.2971 31.436C12.6756 31.436 12.1283 31.4158 10.3107 31.3347C8.62155 31.2605 7.70939 30.9768 7.10129 30.7405C6.29724 30.4298 5.71617 30.0516 5.11482 29.4506C4.50672 28.8428 4.1351 28.2688 3.82429 27.4652C3.58781 26.8574 3.30403 25.939 3.2297 24.2574C3.14862 22.4341 3.12835 21.887 3.12835 17.2746C3.12835 12.6555 3.14862 12.1084 3.2297 10.2918C3.30403 8.60355 3.58781 7.69187 3.82429 7.08408C4.1351 6.28046 4.51347 5.69968 5.11482 5.09865C5.72292 4.49086 6.29724 4.11944 7.10129 3.80879C7.70939 3.57243 8.6283 3.2888 10.3107 3.21451C12.1283 3.13347 12.6756 3.11321 17.2971 3.11321ZM17.2971 0C12.6012 0 12.0134 0.0202595 10.1688 0.101298C8.33101 0.182336 7.06751 0.479475 5.97292 0.904926C4.83104 1.35064 3.86483 1.93816 2.90538 2.90387C1.93917 3.86282 1.35134 4.82852 0.905397 5.96306C0.479726 7.06382 0.182431 8.31991 0.10135 10.1568C0.0202701 12.0071 0 12.5947 0 17.2881C0 21.9816 0.0202701 22.5691 0.10135 24.4127C0.182431 26.2496 0.479726 27.5124 0.905397 28.6065C1.35134 29.7477 1.93917 30.7135 2.90538 31.6724C3.86483 32.6314 4.83104 33.2256 5.96616 33.6646C7.06751 34.09 8.32425 34.3872 10.1621 34.4682C12.0067 34.5493 12.5945 34.5695 17.2904 34.5695C21.9863 34.5695 22.5741 34.5493 24.4187 34.4682C26.2565 34.3872 27.52 34.09 28.6146 33.6646C29.7497 33.2256 30.7159 32.6314 31.6754 31.6724C32.6348 30.7135 33.2294 29.7477 33.6686 28.6132C34.0943 27.5124 34.3916 26.2564 34.4727 24.4195C34.5538 22.5759 34.574 21.9883 34.574 17.2949C34.574 12.6014 34.5538 12.0139 34.4727 10.1703C34.3916 8.33342 34.0943 7.07058 33.6686 5.97656C33.243 4.82852 32.6551 3.86282 31.6889 2.90387C30.7295 1.94492 29.7633 1.35064 28.6281 0.911679C27.5268 0.486229 26.27 0.189089 24.4322 0.108051C22.5809 0.0202595 21.9931 0 17.2971 0Z" fill="white"/>
<path d="M17.2972 8.40625C12.3918 8.40625 8.41211 12.3839 8.41211 17.2867C8.41211 22.1895 12.3918 26.1671 17.2972 26.1671C22.2025 26.1671 26.1822 22.1895 26.1822 17.2867C26.1822 12.3839 22.2025 8.40625 17.2972 8.40625ZM17.2972 23.0471C14.1148 23.0471 11.5337 20.4674 11.5337 17.2867C11.5337 14.1059 14.1148 11.5262 17.2972 11.5262C20.4796 11.5262 23.0606 14.1059 23.0606 17.2867C23.0606 20.4674 20.4796 23.0471 17.2972 23.0471Z" fill="white"/>
<path d="M28.6076 8.0576C28.6076 9.20564 27.6752 10.1308 26.5333 10.1308C25.3847 10.1308 24.459 9.19889 24.459 8.0576C24.459 6.90956 25.3914 5.98438 26.5333 5.98438C27.6752 5.98438 28.6076 6.91631 28.6076 8.0576Z" fill="white"/>
</svg>
