<svg width="35" height="35" viewBox="0 0 35 35" fill="none" xmlns="http://www.w3.org/2000/svg">
<path d="M32.0335 0H2.55403C1.14188 0 0 1.11427 0 2.49192V32.0776C0 33.4552 1.14188 34.5763 2.55403 34.5763H32.0335C33.4457 34.5763 34.5943 33.4552 34.5943 32.0844V2.49192C34.5943 1.11427 33.4457 0 32.0335 0ZM10.2634 29.4641H5.12833V12.9593H10.2634V29.4641ZM7.69588 10.7105C6.04724 10.7105 4.71617 9.38016 4.71617 7.73914C4.71617 6.09812 6.04724 4.76774 7.69588 4.76774C9.33776 4.76774 10.6688 6.09812 10.6688 7.73914C10.6688 9.37341 9.33776 10.7105 7.69588 10.7105ZM29.4795 29.4641H24.3511V21.4413C24.3511 19.5302 24.3174 17.0653 21.6822 17.0653C19.0133 17.0653 18.6079 19.152 18.6079 21.3063V29.4641H13.4864V12.9593H18.4052V15.2149H18.4728C19.1552 13.9183 20.8309 12.5474 23.3241 12.5474C28.52 12.5474 29.4795 15.9645 29.4795 20.4081V29.4641Z" fill="white"/>
</svg>
