<svg width="80" height="80" viewBox="0 0 80 80" fill="none" xmlns="http://www.w3.org/2000/svg">
<circle cx="40" cy="40" r="40" fill="white"/>
<g clip-path="url(#clip0_60_25)">
<path d="M34.6633 20.0276C38.4695 19.8241 42.4139 20.7484 45.4988 23.0306C48.4484 25.1691 50.4594 28.442 51.2826 31.953C51.9794 34.8892 51.972 37.9466 51.2612 40.8794C50.1993 45.1751 47.3222 49.0465 43.351 51.1198C40.62 52.5747 37.4519 53.1572 34.3683 52.9165C30.9386 52.7032 27.6743 51.3786 25.0773 49.1462C21.9588 46.4571 20.0443 42.5312 19.6059 38.4856C19.2412 34.9041 19.8096 31.183 21.5217 27.9925C23.081 25.0609 25.5943 22.7389 28.6529 21.4041C30.5564 20.5899 32.5926 20.1236 34.6633 20.0276ZM34.3817 24.7874C32.0965 25.1099 30.0208 26.2835 28.5765 28.0696C26.5346 30.5499 25.6269 33.8242 25.7422 36.9947C25.8348 39.8341 26.6807 42.7267 28.4893 44.9636C29.8497 46.6515 31.7932 47.7785 33.9433 48.1262C36.1515 48.4813 38.5205 48.1873 40.4538 47.0237C42.5104 45.8121 43.9396 43.7521 44.7185 41.5431C45.9144 38.1371 45.8823 34.283 44.4678 30.9449C43.5629 28.8038 42.0237 26.8661 39.9443 25.7489C38.2604 24.8313 36.2775 24.54 34.3817 24.7874Z" fill="#0112AA"/>
<path d="M51.4774 46.8323C52.9407 46.1058 54.5694 45.7694 56.2034 45.8561C57.3175 45.9386 58.4826 46.3203 59.2119 47.2034C60.0767 48.2593 60.2201 49.7382 59.9346 51.0309C59.4278 52.9406 58.0844 54.4767 56.7464 55.8797C56.1002 56.5447 55.4432 57.1871 54.7689 57.8174C56.6794 57.8307 58.5899 57.8174 60.5004 57.8254C60.491 58.5489 60.5004 59.2737 60.5004 59.9985C57.3899 59.9985 54.2799 59.9985 51.1704 59.9985V57.6765C52.9482 56.0234 54.8118 54.4195 56.2168 52.4259C56.7075 51.7011 57.1781 50.9098 57.2438 50.0201C57.2668 49.7198 57.2095 49.4187 57.0777 49.1474C56.9458 48.8761 56.7442 48.644 56.493 48.4748C55.7985 47.992 54.8976 47.996 54.0931 48.1263C53.2351 48.2979 52.4468 48.6982 51.7121 49.1557C51.633 48.3803 51.5659 47.605 51.4774 46.8323Z" fill="#0112AA"/>
</g>
<defs>
<clipPath id="clip0_60_25">
<rect width="41" height="40" fill="white" transform="translate(19.5 20)"/>
</clipPath>
</defs>
</svg>
