<svg width="80" height="80" viewBox="0 0 80 80" fill="none" xmlns="http://www.w3.org/2000/svg">
<circle cx="40" cy="40" r="40" fill="white"/>
<path d="M64.5592 39.9999C64.5592 53.5644 53.5668 64.5613 40.0023 64.5613C26.4378 64.5613 15.4409 53.5644 15.4409 39.9999C15.4409 26.4354 26.4378 15.4385 40.0023 15.4385C53.5668 15.4385 64.5592 26.4354 64.5592 39.9999Z" fill="#EE3023"/>
<path d="M40.1962 53.6952C33.4501 53.7182 26.4287 47.9599 26.3971 38.7094C26.3745 32.5949 29.6777 26.7062 33.8923 23.2135C38.0077 19.8111 43.6438 17.6225 48.7519 17.6045C49.4107 17.6045 50.1011 17.6585 50.5208 17.803C46.0534 18.728 42.4976 22.8885 42.5111 27.6041C42.5111 27.7619 42.5246 27.9289 42.5426 28.0056C50.0197 29.8287 53.4131 34.3412 53.4357 40.5819C53.4537 46.8272 48.5263 53.6682 40.1962 53.6952Z" fill="white"/>
</svg>
